<svg version="1.1" id="Layer_1" xmlns="http://www.w3.org/2000/svg" xmlns:xlink="http://www.w3.org/1999/xlink" x="0px" y="0px" viewBox="0 0 512 512" style="enable-background:new 0 0 512 512;" xml:space="preserve">
  <g>
    <g>
      <g>
        <path d="M205.757,218.32c5.523,0,10-4.477,10-10v-26.398c0-5.523-4.477-10-10-10s-10,4.477-10,10v26.398
				C195.757,213.843,200.234,218.32,205.757,218.32z"/>
        <path d="M128,122c-5.523,0-10,4.477-10,10v26.398c0,5.523,4.477,10,10,10c5.523,0,10-4.477,10-10V132
				C138,126.477,133.523,122,128,122z"/>
        <path d="M213,60h26.398c5.523,0,10-4.477,10-10s-4.477-10-10-10H213c-5.523,0-10,4.477-10,10S207.477,60,213,60z"/>
        <path d="M205.757,371.759c5.523,0,10-4.477,10-10V249.567c0-5.523-4.477-10-10-10s-10,4.477-10,10v112.192
				C195.757,367.282,200.234,371.759,205.757,371.759z"/>
        <path d="M429.286,335.533L185.913,92.16V10c0-5.523-4.477-10-10-10H89.786c-5.523,0-10,4.477-10,10v86.127
				c0,5.523,4.477,10,10,10h75.967l0.528,332.978c0.006,4.015,2.413,7.637,6.112,9.198c3.698,1.561,7.973,0.758,10.853-2.038
				l72.038-69.935l47.04,115.977C307.176,504.27,318.652,512,331.561,512c4.069,0,8.055-0.78,11.848-2.318
				c7.808-3.167,13.915-9.185,17.197-16.945s3.345-16.333,0.178-24.141L313.73,352.584l108.482,0.02c0.001,0,0.001,0,0.001,0
				c4.044,0,7.691-2.436,9.239-6.172C433.001,342.695,432.145,338.394,429.286,335.533z M165.913,86.127H99.786V20h66.127V86.127z
				 M298.884,332.582c-0.001,0-0.001,0-0.002,0c-3.326,0-6.435,1.654-8.293,4.413c-1.859,2.759-2.224,6.262-0.973,9.346
				l52.635,129.772c1.159,2.857,1.136,5.995-0.065,8.834c-1.201,2.839-3.436,5.042-6.293,6.201
				c-1.394,0.565-2.851,0.852-4.331,0.852c-4.726,0-8.927-2.83-10.704-7.21l-52.62-129.734c-1.25-3.083-3.952-5.342-7.207-6.027
				c-0.685-0.144-1.374-0.214-2.06-0.214c-2.574,0-5.081,0.995-6.965,2.825l-65.762,63.842l-0.468-295.172L398.068,332.6
				L298.884,332.582z"/>
      </g>
    </g>
  </g>
</svg>